<svg width="127" height="59" viewBox="0 0 127 59" fill="none" xmlns="http://www.w3.org/2000/svg">
<path d="M74.648 40V27.928H71.36V23.2H84.056V27.928H80.744V40H74.648ZM86.0628 40V23.2H96.5508V27.928H92.1348V29.32H96.0708V33.76H92.1348V35.272H96.5508V40H86.0628ZM105.553 34.96C105.553 33.424 99.0005 33.208 99.0005 28.24C99.0005 25 101.545 22.888 105.313 22.888C109.153 22.888 111.289 25.408 111.745 26.848L107.473 29.296C107.113 28.552 106.393 27.76 105.625 27.76C105.313 27.76 105.121 27.952 105.121 28.192C105.121 29.776 111.697 30.16 111.697 34.888C111.697 38.2 109.153 40.312 105.145 40.312C101.137 40.312 99.1205 37.672 98.4965 35.944L102.841 33.592C103.465 34.648 104.329 35.368 105.073 35.368C105.385 35.368 105.553 35.2 105.553 34.96ZM116.692 40V27.928H113.404V23.2H126.1V27.928H122.788V40H116.692Z" fill="white"/>
<g clip-path="url(#clip0_1_767)">
<path d="M29.5001 4.91669L4.91675 17.2084L29.5001 29.5L54.0834 17.2084L29.5001 4.91669Z" stroke="white" stroke-width="4" stroke-linecap="round" stroke-linejoin="round"/>
<path d="M4.91675 41.7917L29.5001 54.0834L54.0834 41.7917" stroke="white" stroke-width="4" stroke-linecap="round" stroke-linejoin="round"/>
<path d="M4.91675 29.5L29.5001 41.7917L54.0834 29.5" stroke="white" stroke-width="12" stroke-linecap="round" stroke-linejoin="round"/>
</g>
<defs>
<clipPath id="clip0_1_767">
<rect width="59" height="59" fill="white"/>
</clipPath>
</defs>
</svg>
