<svg width="50" height="50" viewBox="0 0 50 50" fill="none" xmlns="http://www.w3.org/2000/svg">
<rect x="0.5" y="0.5" width="49" height="49" stroke="black"/>
<path d="M47.9166 6.24995C45.9216 7.6572 43.7126 8.73351 41.3749 9.43745C40.1202 7.99477 38.4527 6.97223 36.5979 6.50813C34.7431 6.04404 32.7905 6.16078 31.0043 6.84256C29.218 7.52435 27.6842 8.73829 26.6103 10.3202C25.5364 11.9021 24.9743 13.7757 24.9999 15.6875V17.7708C21.3387 17.8657 17.7109 17.0537 14.4395 15.4071C11.1681 13.7605 8.35475 11.3304 6.24992 8.33329C6.24992 8.33329 -2.08341 27.0833 16.6666 35.4166C12.376 38.3291 7.26483 39.7894 2.08325 39.5833C20.8333 50 43.7499 39.5833 43.7499 15.625C43.748 15.0446 43.6922 14.4658 43.5833 13.8958C45.7095 11.7989 47.21 9.15144 47.9166 6.24995Z" stroke="white" stroke-width="4" stroke-linecap="round" stroke-linejoin="round"/>
</svg>
