<svg width="50" height="50" viewBox="0 0 50 50" fill="none" xmlns="http://www.w3.org/2000/svg">
<rect x="0.5" y="0.5" width="49" height="49" stroke="black"/>
<path d="M46.9582 13.375C46.7107 12.3863 46.2067 11.4804 45.4971 10.7488C44.7874 10.0172 43.8973 9.48584 42.9166 9.20837C39.3332 8.33337 24.9999 8.33337 24.9999 8.33337C24.9999 8.33337 10.6666 8.33337 7.08322 9.29171C6.10249 9.56918 5.21234 10.1005 4.50269 10.8321C3.79305 11.5637 3.28903 12.4696 3.04156 13.4584C2.38575 17.0949 2.06496 20.784 2.08322 24.4792C2.05985 28.2022 2.38065 31.9194 3.04156 35.5834C3.31439 36.5414 3.82969 37.4128 4.53769 38.1135C5.24568 38.8142 6.12243 39.3205 7.08322 39.5834C10.6666 40.5417 24.9999 40.5417 24.9999 40.5417C24.9999 40.5417 39.3332 40.5417 42.9166 39.5834C43.8973 39.3059 44.7874 38.7745 45.4971 38.0429C46.2067 37.3114 46.7107 36.4054 46.9582 35.4167C47.609 31.8075 47.9297 28.1466 47.9166 24.4792C47.9399 20.7562 47.6191 17.039 46.9582 13.375Z" stroke="white" stroke-width="4" stroke-linecap="round" stroke-linejoin="round"/>
<path d="M20.3125 31.2916L32.2917 24.4791L20.3125 17.6666V31.2916Z" stroke="white" stroke-width="4" stroke-linecap="round" stroke-linejoin="round"/>
</svg>
